<?xml version="1.0" encoding="UTF-8"?>
<svg xmlns="http://www.w3.org/2000/svg" xmlns:xlink="http://www.w3.org/1999/xlink" width="854" height="480" viewBox="0 0 854 480">
<defs>
<g>
<g id="glyph-0-0">
<path d="M 2.484375 -4.605469 C 2.890625 -4.605469 3.242188 -4.5 3.539062 -4.289062 C 3.832031 -4.078125 3.980469 -3.847656 3.980469 -3.597656 C 3.980469 -3.492188 3.941406 -3.390625 3.867188 -3.296875 C 3.792969 -3.203125 3.675781 -3.160156 3.519531 -3.160156 C 3.40625 -3.160156 3.304688 -3.199219 3.21875 -3.277344 C 3.132812 -3.355469 3.070312 -3.46875 3.03125 -3.617188 L 2.972656 -3.851562 C 2.929688 -4.023438 2.859375 -4.148438 2.753906 -4.21875 C 2.648438 -4.289062 2.503906 -4.320312 2.328125 -4.320312 C 1.957031 -4.320312 1.644531 -4.160156 1.390625 -3.835938 C 1.132812 -3.511719 1.007812 -3.082031 1.007812 -2.542969 C 1.007812 -2.050781 1.148438 -1.609375 1.429688 -1.21875 C 1.710938 -0.828125 2.089844 -0.632812 2.570312 -0.632812 C 2.90625 -0.632812 3.207031 -0.746094 3.472656 -0.96875 C 3.621094 -1.09375 3.789062 -1.296875 3.980469 -1.570312 L 4.117188 -1.488281 C 3.929688 -1.097656 3.734375 -0.789062 3.53125 -0.5625 C 3.136719 -0.125 2.679688 0.09375 2.164062 0.09375 C 1.65625 0.09375 1.207031 -0.109375 0.816406 -0.507812 C 0.425781 -0.90625 0.230469 -1.453125 0.230469 -2.140625 C 0.230469 -2.8125 0.441406 -3.390625 0.867188 -3.875 C 1.296875 -4.359375 1.835938 -4.605469 2.484375 -4.605469 Z "/>
</g>
<g id="glyph-0-1">
<rect x="0" y="0" width="0" height="0" mask="url(#mask-0)"/>
</g>
<g id="glyph-0-2">
<path d="M 5.347656 -1.859375 L 5.347656 -1.175781 L 0.296875 -1.175781 L 0.296875 -1.859375 Z M 5.347656 -3.875 L 5.347656 -3.195312 L 0.296875 -3.195312 L 0.296875 -3.875 Z "/>
</g>
<g id="glyph-0-3">
<path d="M 4.679688 -2.222656 C 4.679688 -1.625 4.488281 -1.089844 4.105469 -0.609375 C 3.722656 -0.132812 3.222656 0.109375 2.613281 0.109375 C 2.039062 0.109375 1.519531 -0.160156 1.046875 -0.699219 C 0.578125 -1.234375 0.34375 -1.949219 0.34375 -2.84375 C 0.34375 -3.992188 0.796875 -4.976562 1.710938 -5.800781 C 2.523438 -6.492188 3.4375 -6.835938 4.453125 -6.835938 L 4.476562 -6.675781 C 4.070312 -6.601562 3.71875 -6.5 3.425781 -6.371094 C 3.132812 -6.242188 2.867188 -6.0625 2.636719 -5.828125 C 2.398438 -5.59375 2.175781 -5.296875 1.96875 -4.9375 C 1.757812 -4.574219 1.617188 -4.21875 1.539062 -3.863281 C 1.742188 -3.984375 1.914062 -4.078125 2.0625 -4.136719 C 2.320312 -4.242188 2.582031 -4.292969 2.847656 -4.292969 C 3.363281 -4.292969 3.796875 -4.113281 4.148438 -3.753906 C 4.5 -3.398438 4.679688 -2.886719 4.679688 -2.222656 Z M 3.785156 -1.84375 C 3.785156 -2.277344 3.714844 -2.664062 3.578125 -3 C 3.351562 -3.558594 2.964844 -3.835938 2.417969 -3.835938 C 1.914062 -3.835938 1.578125 -3.6875 1.410156 -3.390625 C 1.3125 -3.214844 1.265625 -2.921875 1.265625 -2.507812 C 1.265625 -1.976562 1.378906 -1.460938 1.605469 -0.953125 C 1.832031 -0.445312 2.1875 -0.191406 2.675781 -0.191406 C 3.0625 -0.191406 3.34375 -0.355469 3.519531 -0.6875 C 3.695312 -1.015625 3.785156 -1.402344 3.785156 -1.84375 Z "/>
</g>
</g>
<image id="source-26" x="0" y="0" width="0" height="0"/>
<mask id="mask-0">
<use xlink:href="#source-26"/>
</mask>
</defs>
<g fill="rgb(100%, 100%, 100%)" fill-opacity="1">
<use xlink:href="#glyph-0-0" x="30" y="27.5"/>
<use xlink:href="#glyph-0-1" x="34" y="27.5"/>
<use xlink:href="#glyph-0-2" x="37" y="27.5"/>
<use xlink:href="#glyph-0-1" x="43" y="27.5"/>
<use xlink:href="#glyph-0-3" x="46" y="27.5"/>
</g>
</svg>
